<svg width="32" height="32" viewBox="0 0 32 32" fill="none" xmlns="http://www.w3.org/2000/svg">
<path d="M15.0506 26.9333C14.728 26.8222 14.4444 26.6444 14.2 26.4L11.9 24.3C9.5444 22.1444 7.41685 20.0058 5.51729 17.884C3.61774 15.7622 2.66751 13.4231 2.66663 10.8667C2.66663 8.77777 3.36663 7.03332 4.76663 5.63332C6.16663 4.23332 7.91107 3.53333 9.99996 3.53333C11.1777 3.53333 12.2888 3.7831 13.3333 4.28266C14.3777 4.78221 15.2666 5.46577 16 6.33332C16.7333 5.46666 17.6222 4.78355 18.6666 4.28399C19.7111 3.78444 20.8222 3.53421 22 3.53333C24.0888 3.53333 25.8333 4.23332 27.2333 5.63332C28.6333 7.03332 29.3333 8.77777 29.3333 10.8667C29.3333 13.4222 28.3888 15.7667 26.5 17.9C24.6111 20.0333 22.4666 22.1778 20.0666 24.3333L17.8 26.4C17.5555 26.6444 17.2724 26.8222 16.9506 26.9333C16.6288 27.0444 16.312 27.1 16 27.1C15.688 27.1 15.3715 27.0444 15.0506 26.9333Z" fill="#DD273E"/>
</svg>
