<svg width="37" height="37" viewBox="0 0 37 37" fill="none" xmlns="http://www.w3.org/2000/svg">
<path d="M35.75 18.25C35.75 27.9152 27.9152 35.75 18.25 35.75C8.58475 35.75 0.75 27.9152 0.75 18.25C0.75 8.58475 8.58475 0.75 18.25 0.75C27.9152 0.75 35.75 8.58475 35.75 18.25Z" stroke="#184FA9" stroke-width="1.5"/>
<path d="M35.75 18.25C35.75 27.9152 27.9152 35.75 18.25 35.75C8.58475 35.75 0.75 27.9152 0.75 18.25C0.75 8.58475 8.58475 0.75 18.25 0.75C27.9152 0.75 35.75 8.58475 35.75 18.25Z" stroke="#184FA9" stroke-width="1.5"/>
<path d="M0.75 16.5C5.293 18.257 9.24275 19.419 12.9965 19.9878M35.75 16.5053C31.2123 18.2728 27.266 19.4365 23.5035 20M23.5 20C23.5 21.3924 22.9469 22.7277 21.9623 23.7123C20.9777 24.6969 19.6424 25.25 18.25 25.25C16.8576 25.25 15.5223 24.6969 14.5377 23.7123C13.5531 22.7277 13 21.3924 13 20C13 18.6076 13.5531 17.2723 14.5377 16.2877C15.5223 15.3031 16.8576 14.75 18.25 14.75C19.6424 14.75 20.9777 15.3031 21.9623 16.2877C22.9469 17.2723 23.5 18.6076 23.5 20Z" stroke="#184FA9" stroke-width="1.5"/>
</svg>
