<svg width="39" height="39" viewBox="0 0 39 39" fill="none" xmlns="http://www.w3.org/2000/svg">
<path d="M25.1875 22.75H23.9037L23.4487 22.3112C24.4643 21.1314 25.2065 19.7418 25.6223 18.2416C26.038 16.7415 26.1171 15.168 25.8537 13.6337C25.09 9.11625 21.32 5.50875 16.77 4.95625C15.1704 4.75388 13.5457 4.92013 12.0202 5.44227C10.4947 5.96441 9.10884 6.8286 7.96872 7.96873C6.8286 9.10885 5.96441 10.4947 5.44227 12.0202C4.92013 13.5457 4.75388 15.1704 4.95625 16.77C5.50875 21.32 9.11625 25.09 13.6337 25.8538C15.168 26.1171 16.7415 26.038 18.2416 25.6223C19.7418 25.2065 21.1314 24.4643 22.3112 23.4487L22.75 23.9037V25.1875L29.6562 32.0938C30.3225 32.76 31.4112 32.76 32.0775 32.0938C32.7437 31.4275 32.7437 30.3388 32.0775 29.6725L25.1875 22.75ZM15.4375 22.75C11.3912 22.75 8.125 19.4837 8.125 15.4375C8.125 11.3912 11.3912 8.125 15.4375 8.125C19.4837 8.125 22.75 11.3912 22.75 15.4375C22.75 19.4837 19.4837 22.75 15.4375 22.75Z" fill="#133976"/>
</svg>
