<svg width="42" height="42" viewBox="0 0 42 42" fill="none" xmlns="http://www.w3.org/2000/svg">
<path d="M37.1875 21H15.5663M7.9345 21H4.8125M7.9345 21C7.9345 19.9882 8.33644 19.0178 9.05189 18.3024C9.76734 17.5869 10.7377 17.185 11.7495 17.185C12.7613 17.185 13.7317 17.5869 14.4471 18.3024C15.1626 19.0178 15.5645 19.9882 15.5645 21C15.5645 22.0118 15.1626 22.9822 14.4471 23.6976C13.7317 24.4131 12.7613 24.815 11.7495 24.815C10.7377 24.815 9.76734 24.4131 9.05189 23.6976C8.33644 22.9822 7.9345 22.0118 7.9345 21ZM37.1875 32.5622H27.1285M27.1285 32.5622C27.1285 33.5743 26.7256 34.5457 26.01 35.2613C25.2944 35.977 24.3238 36.379 23.3118 36.379C22.2999 36.379 21.3296 35.9753 20.6141 35.2599C19.8987 34.5444 19.4967 33.574 19.4967 32.5622M27.1285 32.5622C27.1285 31.5502 26.7256 30.5805 26.01 29.8649C25.2944 29.1493 24.3238 28.7472 23.3118 28.7472C22.2999 28.7472 21.3296 29.1492 20.6141 29.8646C19.8987 30.5801 19.4967 31.5504 19.4967 32.5622M19.4967 32.5622H4.8125M37.1875 9.43774H31.7538M24.122 9.43774H4.8125M24.122 9.43774C24.122 8.42594 24.5239 7.45558 25.2394 6.74013C25.9548 6.02468 26.9252 5.62274 27.937 5.62274C28.438 5.62274 28.9341 5.72142 29.3969 5.91314C29.8598 6.10486 30.2804 6.38587 30.6346 6.74013C30.9889 7.09438 31.2699 7.51495 31.4616 7.9778C31.6533 8.44066 31.752 8.93675 31.752 9.43774C31.752 9.93873 31.6533 10.4348 31.4616 10.8977C31.2699 11.3605 30.9889 11.7811 30.6346 12.1354C30.2804 12.4896 29.8598 12.7706 29.3969 12.9623C28.9341 13.1541 28.438 13.2527 27.937 13.2527C26.9252 13.2527 25.9548 12.8508 25.2394 12.1354C24.5239 11.4199 24.122 10.4495 24.122 9.43774Z" stroke="#184FA9" stroke-width="1.5" stroke-miterlimit="10" stroke-linecap="round"/>
</svg>
