<svg width="48" height="48" viewBox="0 0 48 48" fill="none" xmlns="http://www.w3.org/2000/svg">
<g clip-path="url(#clip0_2012_60)">
<path d="M22.806 36.978C22.4247 36.8367 22.0893 36.6207 21.8 36.33L19.504 34.26C15.944 31.0267 12.804 27.882 10.084 24.826C7.36133 21.7713 6 18.596 6 15.3C6 12.756 6.864 10.62 8.592 8.89199C10.32 7.16399 12.456 6.29999 15 6.29999C16.4587 6.29999 17.978 6.66865 19.558 7.40599C21.138 8.14332 22.6187 9.53399 24 11.578C25.3827 9.53399 26.8633 8.14332 28.442 7.40599C30.0207 6.66865 31.54 6.29999 33 6.29999C35.544 6.29999 37.68 7.16399 39.408 8.89199C41.136 10.62 42 12.756 42 15.3C42 18.672 40.5833 21.9133 37.75 25.024C34.9167 28.1347 31.8153 31.216 28.446 34.268L26.162 36.33C25.8713 36.6207 25.5293 36.836 25.136 36.976C24.7427 37.116 24.3513 37.1867 23.962 37.188C23.5727 37.1893 23.1873 37.1207 22.806 36.978ZM23.022 13.654C21.8247 11.7233 20.58 10.348 19.288 9.52799C17.996 8.70932 16.5667 8.29999 15 8.29999C13 8.29999 11.3333 8.96665 10 10.3C8.66667 11.6333 8 13.3 8 15.3C8 16.7773 8.418 18.292 9.254 19.844C10.09 21.3973 11.2127 22.988 12.622 24.616C14.03 26.2427 15.6493 27.908 17.48 29.612C19.308 31.3147 21.212 33.0673 23.192 34.87C23.4227 35.0753 23.692 35.178 24 35.178C24.308 35.178 24.5773 35.0753 24.808 34.87C26.788 33.0673 28.6927 31.314 30.522 29.61C32.3513 27.9087 33.9707 26.244 35.38 24.616C36.788 22.9867 37.91 21.396 38.746 19.844C39.582 18.292 40 16.7773 40 15.3C40 13.3 39.3333 11.6333 38 10.3C36.6667 8.96665 35 8.29999 33 8.29999C31.4333 8.29999 30.004 8.70999 28.712 9.52999C27.4187 10.3487 26.174 11.7233 24.978 13.654C24.8713 13.834 24.7287 13.9687 24.55 14.058C24.3713 14.1473 24.188 14.192 24 14.192C23.812 14.192 23.6287 14.1473 23.45 14.058C23.2713 13.9687 23.1293 13.834 23.024 13.654" fill="#184FA9"/>
</g>
<defs>
<clipPath id="clip0_2012_60">
<rect width="48" height="48" fill="white"/>
</clipPath>
</defs>
</svg>
