<svg width="44" height="44" viewBox="0 0 44 44" fill="none" xmlns="http://www.w3.org/2000/svg">
<g clip-path="url(#clip0_2084_15)">
<rect width="31.1347" height="31.1347" transform="translate(18.7935) rotate(37.1291)" fill="#133976"/>
<path d="M34.844 15.7916C35.053 15.6442 35.1956 15.4203 35.2407 15.1685C35.2859 14.9167 35.2301 14.6573 35.0854 14.4463C34.9407 14.2353 34.7187 14.0899 34.4676 14.0414C34.2164 13.9928 33.9562 14.0452 33.7434 14.1871L31.2066 15.9259C30.9976 16.0734 30.855 16.2973 30.8099 16.5491C30.7647 16.8009 30.8205 17.0603 30.9652 17.2713C31.1099 17.4822 31.3318 17.6277 31.583 17.6762C31.8342 17.7247 32.0944 17.6724 32.3072 17.5305L34.844 15.7916ZM39.582 19.351C39.6171 19.6065 39.5494 19.8654 39.3938 20.071C39.2382 20.2765 39.0073 20.4119 38.7519 20.4474L34.2086 21.0755C34.0798 21.0979 33.9479 21.0942 33.8207 21.0646C33.6934 21.0349 33.5734 20.98 33.4679 20.9029C33.3623 20.8259 33.2734 20.7284 33.2063 20.6163C33.1393 20.5042 33.0955 20.3797 33.0776 20.2502C33.0597 20.1208 33.0681 19.9891 33.1022 19.863C33.1363 19.7368 33.1955 19.6189 33.2762 19.5161C33.3569 19.4133 33.4574 19.3279 33.5719 19.2648C33.6863 19.2018 33.8123 19.1624 33.9422 19.1491L38.4856 18.521C38.741 18.4859 39 18.5535 39.2055 18.7092C39.4111 18.8648 39.5465 19.0957 39.582 19.351ZM29.1762 13.9462C29.1258 13.4584 28.9572 12.9902 28.6851 12.5823C28.4129 12.1743 28.0454 11.8389 27.6143 11.6051C27.1833 11.3712 26.7018 11.246 26.2114 11.2402C25.721 11.2345 25.2367 11.3484 24.8003 11.572L9.1131 19.6164C8.67209 19.8428 8.31457 20.2037 8.0923 20.6468C7.87003 21.0899 7.79455 21.5922 7.87679 22.0811L8.30174 24.6125C8.37809 25.0659 8.58662 25.4868 8.90118 25.8222C9.21575 26.1576 9.62235 26.3927 10.07 26.4979L12.0273 26.958C11.7292 28.2914 11.969 29.6885 12.6946 30.8462C13.4203 32.0039 14.5732 32.8287 15.9032 33.1415C17.2333 33.4544 18.633 33.23 19.7986 32.5172C20.9642 31.8044 21.8017 30.6606 22.1292 29.3341L26.8536 30.4442C27.3218 30.5543 27.8096 30.5508 28.2762 30.4341C28.7428 30.3173 29.1747 30.0907 29.5359 29.773C29.8971 29.4554 30.1771 29.056 30.3525 28.6081C30.5279 28.1602 30.5937 27.6769 30.5443 27.1985L29.1762 13.9462ZM20.2356 28.8866C20.0158 29.6988 19.4889 30.3938 18.7662 30.8248C18.0435 31.2558 17.1816 31.3891 16.3625 31.1964C15.5433 31.0037 14.8312 30.5002 14.3764 29.7923C13.9216 29.0843 13.7598 28.2273 13.9251 27.4022L20.2356 28.8866ZM31.9856 23.4099C32.1414 23.2042 32.3725 23.0687 32.6281 23.0334C32.8837 22.9981 33.1429 23.0657 33.3486 23.2215L35.4172 24.7876C35.6229 24.9433 35.7584 25.1744 35.7937 25.4301C35.829 25.6857 35.7614 25.9448 35.6056 26.1506C35.4499 26.3563 35.2187 26.4917 34.9631 26.5271C34.7075 26.5624 34.4483 26.4948 34.2426 26.339L32.174 24.7729C31.9683 24.6171 31.8329 24.386 31.7975 24.1304C31.7622 23.8748 31.8298 23.6156 31.9856 23.4099Z" fill="#DDE7F5"/>
</g>
<defs>
<clipPath id="clip0_2084_15">
<rect width="31.1347" height="31.1347" fill="white" transform="translate(18.7935) rotate(37.1291)"/>
</clipPath>
</defs>
</svg>
